{
    "asset" : {
        "generator" : "Khronos glTF Blender I/O v1.5.17",
        "version" : "2.0"
    },
    "scene" : 0,
    "scenes" : [
        {
            "name" : "Scene",
            "nodes" : [
                0
            ]
        }
    ],
    "nodes" : [
        {
            "mesh" : 0,
            "name" : "Case"
        }
    ],
    "materials" : [
        {
            "doubleSided" : true,
            "name" : "CaseBlue",
            "normalTexture" : {
                "index" : 0
            },
            "pbrMetallicRoughness" : {
                "baseColorTexture" : {
                    "index" : 1
                },
                "metallicRoughnessTexture" : {
                    "index" : 2
                }
            }
        }
    ],
    "meshes" : [
        {
            "name" : "Cube.001",
            "primitives" : [
                {
                    "attributes" : {
                        "POSITION" : 0,
                        "NORMAL" : 1,
                        "TANGENT" : 2,
                        "TEXCOORD_0" : 3
                    },
                    "indices" : 4,
                    "material" : 0
                }
            ]
        }
    ],
    "textures" : [
        {
            "sampler" : 0,
            "source" : 0
        },
        {
            "sampler" : 0,
            "source" : 1
        },
        {
            "sampler" : 0,
            "source" : 2
        }
    ],
    "images" : [
        {
            "bufferView" : 5,
            "mimeType" : "image/jpeg",
            "name" : "Camera_LP_Shell_Normal"
        },
        {
            "bufferView" : 6,
            "mimeType" : "image/jpeg",
            "name" : "Camera_LP_Shell_BaseColor"
        },
        {
            "bufferView" : 7,
            "mimeType" : "image/png",
            "name" : "Camera_LP_Shell_Metallic.jpg-Camera_LP_Shell_Roughness.jpg"
        }
    ],
    "accessors" : [
        {
            "bufferView" : 0,
            "componentType" : 5126,
            "count" : 1831,
            "max" : [
                1.0010334253311157,
                1,
                0.9485765695571899
            ],
            "min" : [
                -0.9989665150642395,
                -1,
                -0.1735384166240692
            ],
            "type" : "VEC3"
        },
        {
            "bufferView" : 1,
            "componentType" : 5126,
            "count" : 1831,
            "type" : "VEC3"
        },
        {
            "bufferView" : 2,
            "componentType" : 5126,
            "count" : 1831,
            "type" : "VEC4"
        },
        {
            "bufferView" : 3,
            "componentType" : 5126,
            "count" : 1831,
            "type" : "VEC2"
        },
        {
            "bufferView" : 4,
            "componentType" : 5123,
            "count" : 10194,
            "type" : "SCALAR"
        }
    ],
    "bufferViews" : [
        {
            "buffer" : 0,
            "byteLength" : 21972,
            "byteOffset" : 0
        },
        {
            "buffer" : 0,
            "byteLength" : 21972,
            "byteOffset" : 21972
        },
        {
            "buffer" : 0,
            "byteLength" : 29296,
            "byteOffset" : 43944
        },
        {
            "buffer" : 0,
            "byteLength" : 14648,
            "byteOffset" : 73240
        },
        {
            "buffer" : 0,
            "byteLength" : 20388,
            "byteOffset" : 87888
        },
        {
            "buffer" : 0,
            "byteLength" : 483792,
            "byteOffset" : 108276
        },
        {
            "buffer" : 0,
            "byteLength" : 573176,
            "byteOffset" : 592068
        },
        {
            "buffer" : 0,
            "byteLength" : 230056,
            "byteOffset" : 1165244
        }
    ],
    "samplers" : [
        {
            "magFilter" : 9729,
            "minFilter" : 9987
        }
    ],
    "buffers" : [
        {
            "byteLength" : 1395300,
            "uri" : "data:application/octet-stream;base64,"
        }
    ]
}
